<?xml version="1.0" encoding="UTF-8"?>
<!DOCTYPE svg  PUBLIC '-//W3C//DTD SVG 1.1//EN'  'http://www.w3.org/Graphics/SVG/1.1/DTD/svg11.dtd'>
<svg enable-background="new 0 0 100 100" version="1.1" viewBox="0 0 100 100" xml:space="preserve" xmlns="http://www.w3.org/2000/svg">
	<path d="m50 5c-24.813 0-45 20.187-45 45s20.187 45 45 45 45-20.188 45-45c0-24.813-20.187-45-45-45zm0 84.204c-21.617 0-39.204-17.587-39.204-39.204s17.587-39.204 39.204-39.204 39.204 17.587 39.204 39.204-17.587 39.204-39.204 39.204z"/>
	<path d="m50 10.796c-21.617 0-39.204 17.587-39.204 39.204s17.587 39.204 39.204 39.204 39.204-17.587 39.204-39.204-17.587-39.204-39.204-39.204zm13.033 13.94c4.121 0 7.462 5.19 7.462 11.592s-3.341 11.592-7.462 11.592-7.463-5.19-7.463-11.592 3.342-11.592 7.463-11.592zm-26.066 0c4.122 0 7.463 5.19 7.463 11.592s-3.341 11.592-7.463 11.592-7.463-5.19-7.463-11.592 3.341-11.592 7.463-11.592zm34.285 49.76c0 1.564-1.23 2.832-2.751 2.832h-37.002c-1.519 0-2.751-1.268-2.751-2.832 0-0.038 0.01-0.072 0.011-0.11h-0.011c6e-3 -0.043 0.017-0.081 0.023-0.126 0.016-0.197 0.051-0.39 0.106-0.576 1.729-10.118 10.514-17.825 21.123-17.825s19.395 7.707 21.125 17.824c0.053 0.186 0.087 0.379 0.104 0.578 6e-3 0.043 0.018 0.084 0.023 0.124h-0.011c1e-3 0.039 0.011 0.073 0.011 0.111z" fill="#FFF200"/>
	<ellipse cx="36.967" cy="36.328" rx="7.463" ry="11.592"/>
	<ellipse cx="63.033" cy="36.328" rx="7.462" ry="11.592"/>
	<path d="m71.229 74.262c-0.017-0.199-0.051-0.393-0.104-0.578-1.73-10.118-10.516-17.825-21.125-17.825s-19.394 7.707-21.123 17.824c-0.055 0.187-0.09 0.379-0.106 0.576-6e-3 0.045-0.017 0.083-0.023 0.126h0.011c-1e-3 0.038-0.011 0.072-0.011 0.11 0 1.564 1.232 2.832 2.751 2.832h37.002c1.521 0 2.751-1.268 2.751-2.832 0-0.038-0.01-0.072-0.011-0.11h0.011c-6e-3 -0.039-0.018-0.08-0.023-0.123z"/>
</svg>
